mtllib unused.mtl
g
v  -38093.222656 96541.445313 99.997162
v  -38093.222656 96541.429688 -136.885635
v  -34782.378906 96541.429688 -136.885880
v  -34782.378906 96541.445313 99.996948
v  -38093.222656 101504.242188 3433.338623
v  -34782.378906 101504.242188 3433.338135
v  -34782.378906 101504.234375 2882.969727
v  -38093.222656 101504.234375 2882.969727
v  -38093.222656 96541.445313 99.997162
v  -34782.378906 96541.445313 99.996948
v  -34782.378906 101504.242188 3433.338135
v  -38093.222656 101504.242188 3433.338623
v  -34782.378906 96541.445313 99.996948
v  -34782.378906 96541.429688 -136.885880
v  -34782.378906 101504.234375 2882.969727
v  -34782.378906 101504.242188 3433.338135
v  -34782.378906 96541.429688 -136.885880
v  -38093.222656 96541.429688 -136.885635
v  -38093.222656 101504.234375 2882.969727
v  -34782.378906 101504.234375 2882.969727
v  -38093.222656 96541.429688 -136.885635
v  -38093.222656 96541.445313 99.997162
v  -38093.222656 101504.242188 3433.338623
v  -38093.222656 101504.234375 2882.969727

vt  1.000000 1.000000 0.000000
vt  1.000000 0.000000 0.000000
vt  0.000000 0.000000 0.000000
vt  0.000000 1.000000 0.000000
vt  0.000000 1.000000 0.000000
vt  1.000000 1.000000 0.000000
vt  1.000000 0.000000 0.000000
vt  0.000000 0.000000 0.000000
vt  0.000000 1.000000 0.000000
vt  1.000000 1.000000 0.000000
vt  1.000000 0.000000 0.000000
vt  0.000000 0.000000 0.000000
vt  0.000000 1.000000 0.000000
vt  1.000000 1.000000 0.000000
vt  1.000000 0.000000 0.000000
vt  0.000000 0.000000 0.000000
vt  0.000000 1.000000 0.000000
vt  1.000000 1.000000 0.000000
vt  1.000000 0.000000 0.000000
vt  0.000000 0.000000 0.000000
vt  0.000000 1.000000 0.000000
vt  1.000000 1.000000 0.000000
vt  1.000000 0.000000 0.000000
vt  0.000000 0.000000 0.000000

vn  0.000000 -1.000000 0.000066
vn  0.000000 -1.000000 0.000066
vn  0.000000 -1.000000 0.000066
vn  0.000000 -1.000000 0.000066
vn  -0.000000 1.000000 -0.000014
vn  -0.000000 1.000000 -0.000014
vn  -0.000000 1.000000 -0.000014
vn  -0.000000 1.000000 -0.000014
vn  0.000000 -0.557570 0.830130
vn  0.000000 -0.557570 0.830130
vn  0.000000 -0.557570 0.830130
vn  0.000000 -0.557570 0.830130
vn  1.000000 0.000000 -0.000000
vn  1.000000 0.000000 -0.000000
vn  1.000000 0.000000 -0.000000
vn  1.000000 0.000000 -0.000000
vn  -0.000000 0.519824 -0.854274
vn  -0.000000 0.519824 -0.854274
vn  -0.000000 0.519824 -0.854274
vn  -0.000000 0.519824 -0.854274
vn  -1.000000 -0.000000 0.000000
vn  -1.000000 -0.000000 0.000000
vn  -1.000000 -0.000000 0.000000
vn  -1.000000 -0.000000 0.000000

g collider_escalera_1_a
usemtl collider_escalera_1
f  1/1/1 2/2/2 3/3/3
f  4/4/4 1/1/1 3/3/3
f  5/5/5 6/6/6 7/7/7
f  8/8/8 5/5/5 7/7/7
f  9/9/9 10/10/10 11/11/11
f  12/12/12 9/9/9 11/11/11
f  13/13/13 14/14/14 15/15/15
f  16/16/16 13/13/13 15/15/15
f  17/17/17 18/18/18 19/19/19
f  20/20/20 17/17/17 19/19/19
f  21/21/21 22/22/22 23/23/23
f  24/24/24 21/21/21 23/23/23

g
