mtllib unused.mtl
g
v  24005.316406 3329.529541 0.000732
v  23502.382813 3329.529541 0.000732
v  23502.382813 -0.000000 0.000732
v  24005.316406 -0.000000 0.000732
v  24005.316406 3329.529541 -486.168213
v  24005.316406 3329.529541 0.000732
v  24005.316406 -0.000000 0.000732
v  24005.316406 0.000000 -486.168213
v  23502.382813 3329.529541 -486.168213
v  24005.316406 3329.529541 -486.168213
v  24005.316406 0.000000 -486.168213
v  23502.382813 0.000000 -486.168213
v  23502.382813 3329.529541 0.000732
v  23502.382813 3329.529541 -486.168213
v  23502.382813 0.000000 -486.168213
v  23502.382813 -0.000000 0.000732

vt  0.499319 0.491258 0.000000
vt  0.499319 0.401627 0.000000
vt  0.001938 0.401627 0.000000
vt  0.001938 0.491258 0.000000
vt  0.499319 0.489764 0.000000
vt  0.499319 0.403121 0.000000
vt  0.001938 0.403121 0.000000
vt  0.001938 0.489764 0.000000
vt  0.499319 0.491258 0.000000
vt  0.499319 0.401627 0.000000
vt  0.001938 0.401627 0.000000
vt  0.001938 0.491258 0.000000
vt  0.499319 0.489764 0.000000
vt  0.499319 0.403121 0.000000
vt  0.001938 0.403121 0.000000
vt  0.001938 0.489764 0.000000

vn  0.000000 -0.000000 1.000000
vn  0.000000 -0.000000 1.000000
vn  0.000000 -0.000000 1.000000
vn  0.000000 -0.000000 1.000000
vn  1.000000 0.000000 0.000000
vn  1.000000 0.000000 0.000000
vn  1.000000 0.000000 0.000000
vn  1.000000 0.000000 0.000000
vn  0.000000 0.000000 -1.000000
vn  0.000000 0.000000 -1.000000
vn  0.000000 0.000000 -1.000000
vn  0.000000 0.000000 -1.000000
vn  -1.000000 0.000000 0.000000
vn  -1.000000 0.000000 0.000000
vn  -1.000000 0.000000 0.000000
vn  -1.000000 0.000000 0.000000

g Columna
usemtl material
f  1/1/1 2/2/2 3/3/3
f  3/3/3 4/4/4 1/1/1
f  5/5/5 6/6/6 7/7/7
f  7/7/7 8/8/8 5/5/5
f  9/9/9 10/10/10 11/11/11
f  11/11/11 12/12/12 9/9/9
f  13/13/13 14/14/14 15/15/15
f  15/15/15 16/16/16 13/13/13

g
