<svg xmlns="http://www.w3.org/2000/svg" id="puerta_exterior_derecha" width="2032.5" height="1608" viewBox="0 0 2032.5 1608"><defs><style>.cls-1{fill:#1c1c20}.cls-1,.cls-10,.cls-12,.cls-2,.cls-3,.cls-4,.cls-6,.cls-7,.cls-8,.cls-9{fill-rule:evenodd}.cls-2,.cls-3,.cls-9{fill:#383841}.cls-12,.cls-3,.cls-4,.cls-5,.cls-6,.cls-7,.cls-9{stroke:#000}.cls-12,.cls-3,.cls-4,.cls-5,.cls-6,.cls-7{stroke-width:3px}.cls-4,.cls-5{fill:#181619}.cls-6{fill:#242325}.cls-7{fill:#ac4c21}.cls-8{fill:#22201e}.cls-9{stroke-width:3.02px}.cls-10,.cls-11{fill:#171717}.cls-12{fill:#141418}</style></defs><path d="M2077.96,254H1995l2.07,1548,81.93,1Z" class="cls-1" transform="translate(-15.5 -224.5)"/><path d="M1864,1797l-25.31,1L1837,255l27,1V1797Z" class="cls-2" transform="translate(-15.5 -224.5)"/><path d="M2000,256V1802h-14V255Z" class="cls-3" transform="translate(-15.5 -224.5)"/><path d="M1987,1802l-129,3V248h131Z" class="cls-4" transform="translate(-15.5 -224.5)"/><rect width="128" height="3" x="1843.5" y="1358.5" class="cls-5"/><rect id="Rectangle_2_copy" width="128" height="3" x="1843.5" y="1138.5" class="cls-5" data-name="Rectangle 2 copy"/><rect id="Rectangle_2_copy_2" width="128" height="3" x="1843.5" y="930.5" class="cls-5" data-name="Rectangle 2 copy 2"/><rect id="Rectangle_2_copy_3" width="128" height="3" x="1843.5" y="750.5" class="cls-5" data-name="Rectangle 2 copy 3"/><rect id="Rectangle_2_copy_4" width="128" height="3" x="1843.5" y="557.5" class="cls-5" data-name="Rectangle 2 copy 4"/><rect id="Rectangle_2_copy_5" width="128" height="3" x="1843.5" y="383.5" class="cls-5" data-name="Rectangle 2 copy 5"/><rect id="Rectangle_2_copy_6" width="128" height="3" x="1843.5" y="203.5" class="cls-5" data-name="Rectangle 2 copy 6"/><path id="Rounded_Rectangle_4_copy" d="M1968.81,1628.09l-98.7,98.91a7.152,7.152,0,1,0,10.1,10.13l98.7-98.91A7.152,7.152,0,1,0,1968.81,1628.09Zm-98.7.78a7.176,7.176,0,0,0,0,10.13l98.7,98.91a7.152,7.152,0,1,0,10.1-10.13l-98.7-98.91A7.122,7.122,0,0,0,1870.11,1628.87Z" class="cls-6" data-name="Rounded Rectangle 4 copy" transform="translate(-15.5 -224.5)"/><path id="Rounded_Rectangle_4_copy_2" d="M1968.81,1428.09l-98.7,98.91a7.152,7.152,0,1,0,10.1,10.13l98.7-98.91A7.152,7.152,0,1,0,1968.81,1428.09Zm-98.7.78a7.176,7.176,0,0,0,0,10.13l98.7,98.91a7.152,7.152,0,1,0,10.1-10.13l-98.7-98.91A7.122,7.122,0,0,0,1870.11,1428.87Z" class="cls-6" data-name="Rounded Rectangle 4 copy 2" transform="translate(-15.5 -224.5)"/><path id="Rounded_Rectangle_4_copy_3" d="M1968.81,1218.09l-98.7,98.91a7.152,7.152,0,1,0,10.1,10.13l98.7-98.91A7.152,7.152,0,1,0,1968.81,1218.09Zm-98.7.78a7.176,7.176,0,0,0,0,10.13l98.7,98.91a7.152,7.152,0,1,0,10.1-10.13l-98.7-98.91A7.122,7.122,0,0,0,1870.11,1218.87Z" class="cls-6" data-name="Rounded Rectangle 4 copy 3" transform="translate(-15.5 -224.5)"/><path id="Rounded_Rectangle_4_copy_4" d="M1968.81,1018.09l-98.7,98.91a7.152,7.152,0,1,0,10.1,10.13l98.7-98.91A7.152,7.152,0,1,0,1968.81,1018.09Zm-98.7.78a7.176,7.176,0,0,0,0,10.13l98.7,98.91a7.152,7.152,0,1,0,10.1-10.13l-98.7-98.91A7.122,7.122,0,0,0,1870.11,1018.87Z" class="cls-6" data-name="Rounded Rectangle 4 copy 4" transform="translate(-15.5 -224.5)"/><path id="Rounded_Rectangle_4_copy_5" d="M1968.81,826.092l-98.7,98.913a7.151,7.151,0,1,0,10.1,10.125l98.7-98.913A7.151,7.151,0,1,0,1968.81,826.092Zm-98.7.778a7.17,7.17,0,0,0,0,10.125l98.7,98.913a7.151,7.151,0,1,0,10.1-10.125l-98.7-98.913A7.129,7.129,0,0,0,1870.11,826.87Z" class="cls-6" data-name="Rounded Rectangle 4 copy 5" transform="translate(-15.5 -224.5)"/><path id="Rounded_Rectangle_4_copy_6" d="M1968.81,644.092l-98.7,98.913a7.151,7.151,0,1,0,10.1,10.125l98.7-98.913A7.151,7.151,0,1,0,1968.81,644.092Zm-98.7.778a7.17,7.17,0,0,0,0,10.125l98.7,98.913a7.151,7.151,0,1,0,10.1-10.125l-98.7-98.913A7.129,7.129,0,0,0,1870.11,644.87Z" class="cls-7" data-name="Rounded Rectangle 4 copy 6" transform="translate(-15.5 -224.5)"/><path id="Rounded_Rectangle_4_copy_7" d="M1968.81,466.092l-98.7,98.913a7.151,7.151,0,1,0,10.1,10.125l98.7-98.913A7.151,7.151,0,1,0,1968.81,466.092Zm-98.7.778a7.17,7.17,0,0,0,0,10.125l98.7,98.913a7.151,7.151,0,1,0,10.1-10.125l-98.7-98.913A7.129,7.129,0,0,0,1870.11,466.87Z" class="cls-6" data-name="Rounded Rectangle 4 copy 7" transform="translate(-15.5 -224.5)"/><path id="Rounded_Rectangle_4_copy_8" d="M1968.81,276.092l-98.7,98.913a7.151,7.151,0,1,0,10.1,10.125l98.7-98.913A7.151,7.151,0,1,0,1968.81,276.092Zm-98.7.778a7.17,7.17,0,0,0,0,10.125l98.7,98.913a7.151,7.151,0,1,0,10.1-10.125l-98.7-98.913A7.129,7.129,0,0,0,1870.11,276.87Z" class="cls-6" data-name="Rounded Rectangle 4 copy 8" transform="translate(-15.5 -224.5)"/><path id="Shape_15_copy" d="M1843,1797l-15,1-1-1537,16,1V1797Z" class="cls-8" data-name="Shape 15 copy" transform="translate(-15.5 -224.5)"/><path d="M1831,263l-64,1-2,1535,65,1Z" class="cls-9" transform="translate(-15.5 -224.5)"/><path d="M1780,260h-15V1799h15V260Z" class="cls-10" transform="translate(-15.5 -224.5)"/><rect width="66" height="12" x="1749.5" y="35.5" class="cls-11"/><path d="M2080,1795H17v36H2080v-36Z" class="cls-12" transform="translate(-15.5 -224.5)"/><path id="Shape_14_copy" d="M2080,226H17v36H2080V226Z" class="cls-12" data-name="Shape 14 copy" transform="translate(-15.5 -224.5)"/></svg>